<svg width="170" height="170" viewBox="0 0 170 170" fill="none" xmlns="http://www.w3.org/2000/svg">
<g clip-path="url(#clip0_203_191)">
<circle cx="85.0446" cy="85.0446" r="80.7896" transform="rotate(-17.1762 85.0446 85.0446)" fill="white"/>
<circle cx="85.0442" cy="85.0446" r="57.5885" transform="rotate(-17.1762 85.0442 85.0446)" stroke="#231F21" stroke-width="2.48583"/>
<path d="M164.256 69.1553C161.971 57.7632 157.256 46.9981 150.431 37.5943C143.607 28.1906 134.835 20.3694 124.713 14.6644C114.591 8.95934 103.358 5.50471 91.7792 4.53616C80.2007 3.56761 68.5494 5.10792 57.6203 9.05201C46.6913 12.9961 36.7415 19.2512 28.4498 27.3905C20.1582 35.5298 13.7197 45.3619 9.5736 56.2159C5.42753 67.07 3.67143 78.6907 4.42512 90.2852C5.17881 101.88 8.42453 113.175 13.9409 123.401L85.0446 85.0446L164.256 69.1553Z" fill="white"/>
<path d="M27.8788 95.8215C27.4645 95.9722 27.1805 96.2373 27.0268 96.617C26.873 96.9967 26.8661 97.4605 27.0059 98.0084C27.1009 98.3807 27.2338 98.6816 27.4046 98.9111C27.5719 99.1416 27.7644 99.3019 27.982 99.3923C28.1987 99.4792 28.423 99.493 28.6548 99.4339C28.8497 99.3916 29.008 99.3082 29.1296 99.1836C29.2503 99.0555 29.3432 98.899 29.4082 98.7141C29.4697 98.53 29.5127 98.3245 29.5371 98.0976C29.558 97.8715 29.5647 97.6341 29.5573 97.3853L29.5417 96.3567C29.527 95.8592 29.5572 95.3913 29.6325 94.9531C29.7077 94.5149 29.8367 94.1191 30.0196 93.7656C30.2025 93.4122 30.4477 93.112 30.7551 92.8652C31.0616 92.6149 31.4392 92.4306 31.8878 92.3124C32.5491 92.1474 33.1646 92.1699 33.7345 92.3798C34.2999 92.5872 34.7959 92.9694 35.2224 93.5265C35.6445 94.0809 35.9676 94.7972 36.1917 95.6753C36.414 96.5464 36.4742 97.3391 36.3721 98.0535C36.2692 98.7644 36.0023 99.3675 35.5713 99.8629C35.1359 100.356 34.5323 100.71 33.7605 100.925L33.1971 98.7179C33.5526 98.601 33.8282 98.4203 34.024 98.1758C34.2153 97.9287 34.333 97.6349 34.3771 97.2944C34.4167 96.9514 34.3863 96.5831 34.2859 96.1898C34.1873 95.8034 34.0455 95.4823 33.8605 95.2265C33.6746 94.9672 33.4614 94.784 33.2209 94.677C32.9803 94.5701 32.7301 94.5498 32.4702 94.6161C32.2278 94.678 32.0425 94.8019 31.9141 94.9881C31.7849 95.1707 31.6973 95.4138 31.6513 95.7173C31.6044 96.0174 31.5838 96.3762 31.5893 96.7938L31.5941 98.044C31.605 99.0101 31.4424 99.8167 31.1062 100.464C30.77 101.111 30.2028 101.534 29.4046 101.734C28.7522 101.904 28.137 101.876 27.5592 101.65C26.9804 101.419 26.4752 101.03 26.0434 100.482C25.6117 99.9336 25.2954 99.2661 25.0946 98.4793C24.8903 97.6785 24.8489 96.9446 24.9704 96.2776C25.0911 95.607 25.353 95.0426 25.7561 94.5844C26.1591 94.1261 26.6807 93.8097 27.3208 93.6351L27.8788 95.8215Z" fill="black"/>
<path d="M25.5397 89.4399L23.5993 89.4944L23.3428 80.3522L25.2832 80.2978L25.3789 83.7057L34.5699 83.4479L34.6352 85.7742L25.4441 86.032L25.5397 89.4399Z" fill="black"/>
<path d="M35.2704 76.7202L34.7714 79.1933L24.6157 73.2228L25.2157 70.2487L36.8908 68.6878L36.3919 71.161L27.4188 72.1963L27.4016 72.2816L35.2704 76.7202ZM30.9485 76.0092L32.127 70.1674L33.9285 70.5309L32.75 76.3726L30.9485 76.0092Z" fill="black"/>
<path d="M37.6175 66.1554L27.4777 61.5519L29.2939 57.5514C29.6416 56.7856 30.0753 56.1943 30.595 55.7774C31.1129 55.3556 31.6855 55.116 32.3128 55.0584C32.9383 54.996 33.586 55.1169 34.2561 55.4211C34.9294 55.7268 35.4428 56.135 35.7961 56.6458C36.1461 57.155 36.3247 57.7437 36.3319 58.4118C36.3406 59.0766 36.1682 59.7985 35.8145 60.5775L34.5984 63.256L32.8755 62.4738L33.9342 60.1418C34.12 59.7325 34.2182 59.3671 34.2289 59.0455C34.2395 58.7239 34.1626 58.4461 33.9981 58.2122C33.8351 57.9749 33.5869 57.7806 33.2535 57.6293C32.9169 57.4764 32.6023 57.4152 32.3098 57.4457C32.0188 57.4728 31.7517 57.5964 31.5085 57.8164C31.2635 58.0316 31.0473 58.3455 30.86 58.7581L30.2037 60.2038L38.5908 64.0116L37.6175 66.1554ZM35.4892 58.5846L41.2477 58.1594L40.1732 60.526L34.4394 60.8967L35.4892 58.5846Z" fill="black"/>
<path d="M35.0587 50.9336L33.5111 49.7619L39.0315 42.4701L40.5791 43.6418L38.5213 46.36L45.8521 51.9099L44.4474 53.7654L37.1166 48.2155L35.0587 50.9336Z" fill="black"/>
<path d="M55.0786 42.4837L53.0315 43.9585L49.6412 32.6761L52.103 30.9026L61.727 37.6938L59.68 39.1686L52.3949 33.8286L52.3243 33.8795L55.0786 42.4837ZM52.392 39.0245L57.2273 35.5409L58.3016 37.0321L53.4663 40.5156L52.392 39.0245Z" fill="black"/>
<path d="M69.7451 35.5019L67.1395 24.6751L71.411 23.6471C72.2322 23.4495 72.9695 23.438 73.623 23.6126C74.2756 23.7836 74.8201 24.1093 75.2563 24.5897C75.6953 25.0657 76.0012 25.6632 76.1743 26.3821C76.3473 27.1011 76.3449 27.7728 76.1671 28.3972C75.9892 29.0217 75.6429 29.558 75.1282 30.0063C74.6169 30.4537 73.9454 30.7775 73.1137 30.9776L70.3911 31.6328L69.9496 29.7984L72.3021 29.2323C72.7427 29.1263 73.0875 28.9631 73.3365 28.7429C73.5881 28.5183 73.7518 28.2533 73.8275 27.948C73.9058 27.6383 73.9022 27.3055 73.8165 26.9496C73.73 26.5901 73.5822 26.2938 73.3733 26.0607C73.167 25.8233 72.9016 25.6653 72.5769 25.5868C72.2515 25.5048 71.8667 25.5173 71.4226 25.6241L69.879 25.9956L72.0341 34.951L69.7451 35.5019Z" fill="black"/>
<path d="M80.7321 33.3118L80.5725 22.177L84.9655 22.1141C85.8064 22.102 86.5262 22.2421 87.1249 22.5345C87.7273 22.8231 88.1882 23.2388 88.5078 23.7817C88.8309 24.3209 88.9977 24.9583 89.0083 25.6941C89.0189 26.4335 88.8685 27.0719 88.5572 27.6093C88.2458 28.1431 87.7895 28.5557 87.1883 28.8471C86.5906 29.1384 85.8641 29.2902 85.0087 29.3025L82.0674 29.3446L82.0402 27.4526L84.601 27.4159C85.0504 27.4094 85.4229 27.3425 85.7183 27.215C86.0138 27.0875 86.2322 26.8995 86.3737 26.6509C86.5188 26.4023 86.5887 26.095 86.5834 25.7289C86.5781 25.3592 86.4994 25.0485 86.3471 24.7969C86.1985 24.5453 85.9728 24.3564 85.6701 24.2302C85.371 24.1004 84.9949 24.0387 84.5418 24.0452L82.9542 24.0679L83.0863 33.278L80.7321 33.3118ZM86.6726 28.1584L89.5127 33.1859L86.9138 33.2231L84.1336 28.1948L86.6726 28.1584Z" fill="black"/>
<path d="M103.098 30.354C102.829 31.5382 102.376 32.4947 101.738 33.2235C101.104 33.953 100.352 34.4494 99.4817 34.7127C98.6159 34.9733 97.704 34.9948 96.746 34.7772C95.781 34.558 94.9647 34.1421 94.2972 33.5296C93.6297 32.917 93.1676 32.1448 92.9108 31.2129C92.6541 30.2811 92.6598 29.2248 92.928 28.0441C93.197 26.8599 93.6485 25.9031 94.2826 25.1735C94.9167 24.444 95.6666 23.9489 96.5324 23.6884C97.3991 23.4243 98.3149 23.4018 99.2799 23.621C100.238 23.8386 101.051 24.2536 101.718 24.8662C102.39 25.476 102.854 26.2469 103.111 27.1787C103.371 28.1114 103.367 29.1698 103.098 30.354ZM100.77 29.8253C100.944 29.0583 100.977 28.3853 100.866 27.8064C100.76 27.2283 100.531 26.7562 100.179 26.3901C99.827 26.0239 99.3737 25.7778 98.8187 25.6518C98.2637 25.5257 97.7485 25.5518 97.2731 25.7301C96.7977 25.9083 96.3853 26.2347 96.0359 26.7092C95.69 27.1846 95.43 27.8058 95.2557 28.5728C95.0815 29.3399 95.0477 30.0125 95.1543 30.5906C95.2645 31.1695 95.4954 31.642 95.8472 32.0081C96.1989 32.3742 96.6523 32.6203 97.2073 32.7464C97.7623 32.8724 98.2775 32.8463 98.7529 32.6681C99.2283 32.4898 99.6389 32.1631 99.9848 31.6877C100.334 31.2132 100.596 30.5924 100.77 29.8253Z" fill="black"/>
<path d="M113.168 28.8808L115.263 29.8941L111.882 36.8842C111.57 37.5303 111.153 38.0214 110.632 38.3574C110.115 38.695 109.537 38.8688 108.9 38.8788C108.263 38.8888 107.605 38.7297 106.927 38.4014C106.323 38.1095 105.826 37.7383 105.436 37.2878C105.05 36.8357 104.82 36.3216 104.744 35.7454C104.67 35.166 104.796 34.5442 105.121 33.88L107.231 34.9003C107.109 35.1678 107.054 35.4207 107.063 35.6589C107.078 35.8954 107.15 36.1076 107.281 36.2956C107.416 36.4819 107.608 36.635 107.856 36.7549C108.117 36.8812 108.364 36.9322 108.597 36.9081C108.835 36.8822 109.054 36.7829 109.255 36.61C109.455 36.4371 109.633 36.1908 109.787 35.871L113.168 28.8808Z" fill="black"/>
<path d="M113.237 41.7126L120.033 32.8911L125.978 37.4706L124.793 39.0083L120.714 35.8657L119.094 37.9677L122.868 40.8747L121.683 42.4124L117.91 39.5054L116.287 41.6118L120.383 44.7676L119.199 46.3054L113.237 41.7126Z" fill="black"/>
<path d="M133.257 51.4729L131.746 49.632C131.957 49.4029 132.112 49.1606 132.212 48.9051C132.314 48.6474 132.365 48.3832 132.363 48.1126C132.361 47.842 132.308 47.5714 132.203 47.301C132.101 47.0333 131.949 46.7762 131.746 46.5296C131.381 46.0841 130.951 45.7869 130.459 45.6379C129.969 45.4866 129.439 45.4924 128.869 45.6552C128.302 45.8157 127.72 46.1409 127.123 46.6308C126.51 47.1344 126.069 47.6486 125.801 48.1734C125.535 48.701 125.431 49.2175 125.49 49.7229C125.548 50.2284 125.756 50.6982 126.112 51.1325C126.312 51.3763 126.53 51.5754 126.764 51.7299C127.001 51.8872 127.248 51.9965 127.505 52.0578C127.764 52.1168 128.027 52.126 128.294 52.0853C128.563 52.0474 128.83 51.9552 129.094 51.8086L130.596 53.6565C130.162 53.9331 129.683 54.1268 129.16 54.2375C128.642 54.3487 128.107 54.3631 127.556 54.2805C127.011 54.1984 126.473 54.0064 125.944 53.7045C125.42 53.403 124.931 52.9763 124.478 52.4243C123.848 51.6565 123.458 50.8274 123.309 49.937C123.162 49.0494 123.274 48.1603 123.645 47.2696C124.019 46.3817 124.673 45.5537 125.609 44.7856C126.548 44.0152 127.491 43.5363 128.439 43.3489C129.388 43.1616 130.283 43.2291 131.124 43.5515C131.968 43.8715 132.701 44.4099 133.322 45.1664C133.731 45.6652 134.04 46.185 134.25 46.7259C134.462 47.2696 134.569 47.8172 134.571 48.3686C134.576 48.9177 134.47 49.4547 134.254 49.9794C134.04 50.5069 133.707 51.0047 133.257 51.4729Z" fill="black"/>
<path d="M136.897 53.885L138.641 53.0322L142.659 61.2481L140.915 62.1009L139.417 59.0382L131.157 63.0777L130.135 60.9871L138.395 56.9476L136.897 53.885Z" fill="black"/>
</g>
<defs>
<clipPath id="clip0_203_191">
<rect width="170" height="170" fill="white"/>
</clipPath>
</defs>
</svg>